<mxfile host="app.diagrams.net" modified="2021-05-11T19:50:20.942Z" agent="5.0 (X11; Linux x86_64) AppleWebKit/537.36 (KHTML, like Gecko) Chrome/90.0.4430.93 Safari/537.36" etag="1oBpy2rczMyHsq5wtK3L" version="14.6.12" type="github">
  <diagram name="Page-1" id="2cc2dc42-3aac-f2a9-1cec-7a8b7cbee084">
    <mxGraphModel dx="658" dy="789" grid="1" gridSize="10" guides="1" tooltips="1" connect="1" arrows="1" fold="1" page="1" pageScale="1" pageWidth="1100" pageHeight="850" background="#ffffff" math="0" shadow="0">
      <root>
        <mxCell id="0" />
        <mxCell id="1" parent="0" />
        <mxCell id="JNX6dKnBHb6OwbU0nce6-3" value="Window Title" style="strokeWidth=1;shadow=0;dashed=0;align=center;html=1;shape=mxgraph.mockup.containers.window;align=left;verticalAlign=top;spacingLeft=8;strokeColor2=#008cff;strokeColor3=#c4c4c4;fontColor=#666666;mainText=;fontSize=17;labelBackgroundColor=none;" parent="1" vertex="1">
          <mxGeometry x="60" width="1000" height="800" as="geometry" />
        </mxCell>
        <mxCell id="JNX6dKnBHb6OwbU0nce6-2" value="" style="verticalLabelPosition=bottom;shadow=0;dashed=0;align=center;html=1;verticalAlign=top;strokeWidth=1;shape=mxgraph.mockup.graphics.simpleIcon;strokeColor=#999999;fontSize=16;" parent="1" vertex="1">
          <mxGeometry x="395" y="70" width="50" height="50" as="geometry" />
        </mxCell>
        <mxCell id="7026571954dc6520-4" value="App Logo and Name" style="text;html=1;points=[];align=center;verticalAlign=top;spacingTop=-4;fontSize=30;fontFamily=Verdana" parent="1" vertex="1">
          <mxGeometry x="435" y="70" width="340" height="50" as="geometry" />
        </mxCell>
        <mxCell id="7026571954dc6520-20" value="App description, slogan, or explanation" style="text;html=1;points=[];align=center;verticalAlign=top;spacingTop=-4;fontSize=16;fontFamily=Verdana;whiteSpace=wrap;" parent="1" vertex="1">
          <mxGeometry x="345" y="170" width="450" height="40" as="geometry" />
        </mxCell>
        <mxCell id="7026571954dc6520-18" value="Browse button" style="strokeWidth=1;shadow=0;dashed=0;align=center;html=1;shape=mxgraph.mockup.buttons.button;strokeColor=#666666;mainText=;buttonStyle=round;fontSize=17;fontStyle=0;fillColor=none;whiteSpace=wrap;rounded=0;labelBackgroundColor=none;" parent="1" vertex="1">
          <mxGeometry x="210" y="240" width="240" height="60" as="geometry" />
        </mxCell>
        <mxCell id="7026571954dc6520-19" value="File saving location button" style="strokeWidth=1;shadow=0;dashed=0;align=center;html=1;shape=mxgraph.mockup.buttons.button;strokeColor=#666666;mainText=;buttonStyle=round;fontSize=17;fontStyle=0;fillColor=none;whiteSpace=wrap;rounded=0;labelBackgroundColor=none;" parent="1" vertex="1">
          <mxGeometry x="665" y="240" width="250" height="60" as="geometry" />
        </mxCell>
        <mxCell id="JNX6dKnBHb6OwbU0nce6-4" value="Text box displays chosen PDF file names" style="shape=mxgraph.mockup.containers.marginRect;rectMarginTop=10;strokeColor=#666666;strokeWidth=1;dashed=0;rounded=1;arcSize=5;recursiveResize=0;fontSize=16;align=center;" parent="1" vertex="1">
          <mxGeometry x="160" y="340" width="340" height="240" as="geometry" />
        </mxCell>
        <mxCell id="JNX6dKnBHb6OwbU0nce6-5" value="Group" style="shape=rect;strokeColor=none;fillColor=#008cff;strokeWidth=1;dashed=0;rounded=1;arcSize=20;fontColor=#ffffff;fontSize=17;spacing=2;spacingTop=-2;align=left;autosize=1;spacingLeft=4;resizeWidth=0;resizeHeight=0;perimeter=none;" parent="JNX6dKnBHb6OwbU0nce6-4" vertex="1">
          <mxGeometry x="5" width="90" height="30" as="geometry" />
        </mxCell>
        <mxCell id="JNX6dKnBHb6OwbU0nce6-6" value="Text box displays the directory for &#xa;saving output files. &#xa;Inform the converstion status. " style="shape=mxgraph.mockup.containers.marginRect;rectMarginTop=10;strokeColor=#666666;strokeWidth=1;dashed=0;rounded=1;arcSize=5;recursiveResize=0;fontSize=16;align=center;" parent="1" vertex="1">
          <mxGeometry x="620" y="340" width="340" height="240" as="geometry" />
        </mxCell>
        <mxCell id="JNX6dKnBHb6OwbU0nce6-7" value="Group" style="shape=rect;strokeColor=none;fillColor=#008cff;strokeWidth=1;dashed=0;rounded=1;arcSize=20;fontColor=#ffffff;fontSize=17;spacing=2;spacingTop=-2;align=left;autosize=1;spacingLeft=4;resizeWidth=0;resizeHeight=0;perimeter=none;" parent="JNX6dKnBHb6OwbU0nce6-6" vertex="1">
          <mxGeometry x="5" width="90" height="30" as="geometry" />
        </mxCell>
        <mxCell id="JNX6dKnBHb6OwbU0nce6-8" value="Convert button" style="strokeWidth=1;shadow=0;dashed=0;align=center;html=1;shape=mxgraph.mockup.buttons.button;strokeColor=#666666;mainText=;buttonStyle=round;fontSize=17;fontStyle=0;fillColor=none;whiteSpace=wrap;rounded=0;labelBackgroundColor=none;" parent="1" vertex="1">
          <mxGeometry x="430" y="670" width="240" height="60" as="geometry" />
        </mxCell>
        <mxCell id="JNX6dKnBHb6OwbU0nce6-9" value="" style="verticalLabelPosition=bottom;shadow=0;dashed=0;align=center;html=1;verticalAlign=top;strokeWidth=1;shape=mxgraph.mockup.misc.progressBar;fillColor=#cccccc;strokeColor=none;fillColor2=#99ddff;barPos=80;fontSize=16;" parent="1" vertex="1">
          <mxGeometry x="435" y="630" width="235" height="20" as="geometry" />
        </mxCell>
      </root>
    </mxGraphModel>
  </diagram>
</mxfile>
